<?xml version="1.0" encoding="UTF-8"?> <svg xmlns="http://www.w3.org/2000/svg" width="24" height="24" viewBox="0 0 24 24" fill="none"> <path d="M19.09 15L12.55 20.15C12.3983 20.2843 12.2026 20.3584 12 20.3584C11.7974 20.3584 11.6018 20.2843 11.45 20.15L5.91001 15C5.79208 14.8891 5.7101 14.7454 5.67464 14.5874C5.63918 14.4294 5.65186 14.2645 5.71106 14.1138C5.77026 13.9631 5.87325 13.8336 6.00674 13.7421C6.14024 13.6505 6.29812 13.601 6.46001 13.6H8.79001V5.6C8.79263 5.17646 8.96204 4.77102 9.26153 4.47153C9.56103 4.17203 9.96647 4.00262 10.39 4H13.61C14.0353 4.00264 14.4422 4.17343 14.742 4.47508C15.0418 4.77672 15.21 5.18473 15.21 5.61V13.61H18.54C18.6998 13.613 18.8551 13.6632 18.9864 13.7543C19.1177 13.8454 19.2191 13.9732 19.2779 14.1218C19.3367 14.2704 19.3502 14.4331 19.3168 14.5893C19.2834 14.7456 19.2045 14.8885 19.09 15Z" fill="#FF8818"></path> <path d="M22.16 15.73C21.74 16.4 20.38 15.83 20.67 15.01L20.56 14.01C19.92 14.36 19.25 14.68 18.65 15.06V15.13C18.48 15.53 18.29 15.84 17.83 15.81C17.56 15.81 16.73 15.35 16.74 15.02C16.79 12.84 16.74 10.65 16.74 8.48C16.74 6.48 17.11 3.34 14.5 2.67C13.29 2.36 8.85001 1.75 8.62001 3.81C8.82001 5 9.00001 6.27 9.20001 7.5C9.23591 8.88332 9.67754 10.2256 10.47 11.36C10.92 11.68 10.92 12.81 10.17 12.74C9.74861 12.6885 9.32455 12.6618 8.90001 12.66C7.04001 12.39 5.50001 13.21 4.30001 15.12L6.00001 16.86C6.84001 17.75 7.70001 18.62 8.57001 19.49C10.17 22.33 11.6967 22.9967 13.15 21.49L15.39 19.74L18.64 17.2C19.5 16.53 20.71 17.77 19.91 18.4L16.61 20.94C15.6042 21.8928 14.5092 22.7467 13.34 23.49C11.34 24.49 10.45 22.82 9.22001 21.49C7.82001 20 6.20001 18.62 4.70001 17.23C3.95001 16.55 3.38001 16.23 3.14001 15.23C2.70001 13.33 4.30001 12 6.00001 11.92C6.88001 11.69 7.76001 11.51 8.65001 11.35C8.2324 10.4558 7.94611 9.50602 7.80001 8.53C7.60001 7.53 7.45001 6.6 7.30001 5.62C7.10353 4.89627 7.00268 4.14992 7.00001 3.4C7.26001 0.949999 10.24 1 12.06 1C14.2 1 16.59 0.629999 17.83 2.82C18.43 3.89 18.25 5.24 18.28 6.4C18.34 8.66 18.39 10.93 18.52 13.19L19.42 12.75C20.14 12.4 20.85 11.81 21.7 12.03C22.0023 12.1327 22.2696 12.3186 22.4712 12.5662C22.6728 12.8138 22.8006 13.1131 22.84 13.43C22.9041 13.8398 22.8763 14.2587 22.7587 14.6565C22.6411 15.0543 22.4366 15.4209 22.16 15.73Z" fill="#111320"></path> </svg> 