<?xml version="1.0" encoding="UTF-8"?> <svg xmlns="http://www.w3.org/2000/svg" width="209" height="196" viewBox="0 0 209 196" fill="none"> <path d="M176.101 162.7C137.301 195.3 53.0006 212.4 20.4006 173.6C-12.1994 134.8 19.4006 54.8 58.2006 22.2001C97.0006 -10.3999 154.801 -5.29995 187.401 33.5001C220.001 72.3 214.901 130.2 176.101 162.7Z" fill="#A7A6F6"></path> <path d="M25.2004 169.7L0.400391 173.1L17.5004 193.5L25.2004 169.7Z" fill="#A099E9"></path> <path d="M176.101 162.7C211.401 133 218.801 82.4 195.201 44.3C195.201 44.3 239.201 177.4 48.8008 191.6C88.3008 204 146.001 188 176.101 162.7Z" fill="#A099E9"></path> <path d="M78.5 43.2C54.1 61 40.7 84.1 34.3 75.3C27.9 66.5 42.5 45 66.9 27.3C91.3 9.60001 116.3 2.40001 122.7 11.2C129.1 20 103 25.5 78.5 43.2Z" fill="#BEBEFC"></path> </svg> 