<?xml version="1.0" encoding="UTF-8"?> <svg xmlns="http://www.w3.org/2000/svg" width="101" height="95" viewBox="0 0 101 95" fill="none"> <path d="M85.0994 78.6C66.2994 94.3 25.5994 102.6 9.79939 83.9C-6.00061 65.2 9.29939 26.4 28.0994 10.7C46.8994 -4.99996 74.7994 -2.59996 90.5994 16.2C106.399 35 103.799 62.8 85.0994 78.6Z" fill="#A7A6F6"></path> <path d="M12.0996 81.9L0.0996094 83.6L8.39961 93.4L12.0996 81.9Z" fill="#A099E9"></path> <path d="M85.1 78.6C102.2 64.3 105.7 39.8 94.3 21.4C94.3 21.4 115.6 85.8 23.5 92.6C42.6 98.5 70.5 90.8 85.1 78.6Z" fill="#A099E9"></path> <path d="M38.5 18.2001C28.7 24.5001 23 33.3001 20.7 29.6001C18.3 25.9001 24.4 17.8001 34.3 11.5001C44.1 5.20007 54 3.10006 56.4 6.80006C58.7 10.5001 48.3 11.9001 38.5 18.2001Z" fill="#BEBEFC"></path> <path d="M31.999 60.1377H30.3203V57H21.1357V60.1465H19.4482L19.4395 55.6201H20.4854C21.0361 54.999 21.4727 54.167 21.7949 53.124C22.123 52.0752 22.3281 50.9268 22.4102 49.6787L22.6914 44.2031H30.3467V55.6201H32.0166L31.999 60.1377ZM22.4102 55.6201H28.6504V45.5918H24.3174L24.1328 49.3535C24.0566 50.8242 23.8604 52.0781 23.5439 53.1152C23.2334 54.1523 22.8555 54.9873 22.4102 55.6201ZM39.918 47.4902H41.5439V57H39.918V50.0654L35.5322 57H33.9062V47.4902H35.5322V54.4336L39.918 47.4902ZM49.3838 50.0918C49.3838 49.6465 49.2139 49.2949 48.874 49.0371C48.5342 48.7734 48.0684 48.6416 47.4766 48.6416C46.9023 48.6416 46.4219 48.791 46.0352 49.0898C45.6543 49.3887 45.4639 49.7402 45.4639 50.1445H43.8467C43.8467 49.3184 44.1924 48.6416 44.8838 48.1143C45.5752 47.5869 46.4395 47.3232 47.4766 47.3232C48.5898 47.3232 49.457 47.5635 50.0781 48.0439C50.6992 48.5186 51.0098 49.1982 51.0098 50.083C51.0098 50.5107 50.8809 50.9033 50.623 51.2607C50.3652 51.6182 49.999 51.9023 49.5244 52.1133C50.6318 52.4883 51.1855 53.2266 51.1855 54.3281C51.1855 55.2012 50.8486 55.8926 50.1748 56.4023C49.501 56.9121 48.6016 57.167 47.4766 57.167C46.3809 57.167 45.4756 56.9004 44.7607 56.3672C44.0518 55.8281 43.6973 55.1016 43.6973 54.1875H45.3145C45.3145 54.6504 45.5195 55.0488 45.9297 55.3828C46.3457 55.7109 46.8613 55.875 47.4766 55.875C48.0977 55.875 48.5986 55.7314 48.9795 55.4443C49.3604 55.1572 49.5508 54.7852 49.5508 54.3281C49.5508 53.7949 49.3896 53.4141 49.0674 53.1855C48.751 52.9512 48.2559 52.834 47.582 52.834H45.9561V51.4629H47.7227C48.8301 51.4336 49.3838 50.9766 49.3838 50.0918ZM59.166 57C59.0723 56.8125 58.9961 56.4785 58.9375 55.998C58.1816 56.7832 57.2793 57.1758 56.2305 57.1758C55.293 57.1758 54.5225 56.9121 53.9189 56.3848C53.3213 55.8516 53.0225 55.1777 53.0225 54.3633C53.0225 53.373 53.3975 52.6055 54.1475 52.0605C54.9033 51.5098 55.9639 51.2344 57.3291 51.2344H58.9111V50.4873C58.9111 49.9189 58.7412 49.4678 58.4014 49.1338C58.0615 48.7939 57.5605 48.624 56.8984 48.624C56.3184 48.624 55.832 48.7705 55.4395 49.0635C55.0469 49.3564 54.8506 49.7109 54.8506 50.127H53.2158C53.2158 49.6523 53.3828 49.1953 53.7168 48.7559C54.0566 48.3105 54.5137 47.959 55.0879 47.7012C55.668 47.4434 56.3037 47.3145 56.9951 47.3145C58.0908 47.3145 58.9492 47.5898 59.5703 48.1406C60.1914 48.6855 60.5137 49.4385 60.5371 50.3994V54.7764C60.5371 55.6494 60.6484 56.3438 60.8711 56.8594V57H59.166ZM56.4678 55.7607C56.9775 55.7607 57.4609 55.6289 57.918 55.3652C58.375 55.1016 58.7061 54.7588 58.9111 54.3369V52.3857H57.6367C55.6445 52.3857 54.6484 52.9688 54.6484 54.1348C54.6484 54.6445 54.8184 55.043 55.1582 55.3301C55.498 55.6172 55.9346 55.7607 56.4678 55.7607ZM69.2383 47.4902H70.8643V57H69.2383V50.0654L64.8525 57H63.2266V47.4902H64.8525V54.4336L69.2383 47.4902ZM69.6777 44.0273C69.6777 44.7363 69.4346 45.3076 68.9482 45.7412C68.4678 46.1689 67.835 46.3828 67.0498 46.3828C66.2646 46.3828 65.6289 46.166 65.1426 45.7324C64.6562 45.2988 64.4131 44.7305 64.4131 44.0273H65.7402C65.7402 44.4375 65.8516 44.7598 66.0742 44.9941C66.2969 45.2227 66.6221 45.3369 67.0498 45.3369C67.46 45.3369 67.7793 45.2227 68.0078 44.9941C68.2422 44.7656 68.3594 44.4434 68.3594 44.0273H69.6777ZM81.2441 57H79.6182V52.9395H75.25V57H73.6152V47.4902H75.25V51.6123H79.6182V47.4902H81.2441V57Z" fill="#252835"></path> </svg> 