<?xml version="1.0" encoding="UTF-8"?> <svg xmlns="http://www.w3.org/2000/svg" width="252" height="207" viewBox="0 0 252 207" fill="none"> <path d="M186.101 142.5C159.701 173.4 95.3008 198 64.4008 171.6C33.5008 145.2 47.9008 77.7 74.3008 46.9C100.701 16.1 147.101 12.4 178.001 38.8C208.901 65.2 212.501 111.6 186.101 142.5Z" fill="#A7A6F6"></path> <path d="M67.6004 167.8L48.4004 173.9L64.6004 187.7L67.6004 167.8Z" fill="#A099E9"></path> <path d="M186.101 142.5C210.101 114.4 209.301 73.4 185.601 46.3C185.601 46.3 238.001 145.8 89.2012 182.1C122.101 186.7 165.601 166.5 186.101 142.5Z" fill="#A099E9"></path> <path d="M101.901 48.6C85.7006 57.8 76.2006 71.7 72.5006 65.3C68.8006 58.9 79.0006 46.2 95.2006 36.9C111.401 27.6 127.501 25.5 131.201 31.9C135.001 38.3 118.101 39.4 101.901 48.6Z" fill="#BEBEFC"></path> <path d="M76.0723 94.7812L80.7207 106.383L85.3691 94.7812H87.8008V109H85.9258V103.463L86.1016 97.4863L81.4336 109H79.998L75.3398 97.5156L75.5254 103.463V109H73.6504V94.7812H76.0723ZM97.3516 109C97.2474 108.792 97.1628 108.421 97.0977 107.887C96.2578 108.759 95.2552 109.195 94.0898 109.195C93.0482 109.195 92.1921 108.902 91.5215 108.316C90.8574 107.724 90.5254 106.975 90.5254 106.07C90.5254 104.97 90.9421 104.117 91.7754 103.512C92.6152 102.9 93.7936 102.594 95.3105 102.594H97.0684V101.764C97.0684 101.132 96.8796 100.631 96.502 100.26C96.1243 99.8822 95.5677 99.6934 94.832 99.6934C94.1875 99.6934 93.6471 99.8561 93.2109 100.182C92.7747 100.507 92.5566 100.901 92.5566 101.363H90.7402C90.7402 100.836 90.9258 100.328 91.2969 99.8398C91.6745 99.3451 92.1823 98.9544 92.8203 98.668C93.4648 98.3815 94.1712 98.2383 94.9395 98.2383C96.1569 98.2383 97.1107 98.5443 97.8008 99.1562C98.4909 99.7617 98.849 100.598 98.875 101.666V106.529C98.875 107.499 98.9987 108.271 99.2461 108.844V109H97.3516ZM94.3535 107.623C94.9199 107.623 95.457 107.477 95.9648 107.184C96.4727 106.891 96.8405 106.51 97.0684 106.041V103.873H95.6523C93.4388 103.873 92.332 104.521 92.332 105.816C92.332 106.383 92.5208 106.826 92.8984 107.145C93.276 107.464 93.7611 107.623 94.3535 107.623ZM110.633 103.834C110.633 105.442 110.265 106.738 109.529 107.721C108.794 108.704 107.798 109.195 106.541 109.195C105.258 109.195 104.249 108.788 103.514 107.975V113.062H101.707V98.4336H103.357L103.445 99.6055C104.181 98.694 105.203 98.2383 106.512 98.2383C107.781 98.2383 108.784 98.7168 109.52 99.6738C110.262 100.631 110.633 101.962 110.633 103.668V103.834ZM108.826 103.629C108.826 102.438 108.572 101.497 108.064 100.807C107.557 100.117 106.86 99.7715 105.975 99.7715C104.881 99.7715 104.061 100.257 103.514 101.227V106.275C104.054 107.239 104.881 107.721 105.994 107.721C106.86 107.721 107.547 107.379 108.055 106.695C108.569 106.005 108.826 104.983 108.826 103.629ZM116.229 104.498H114.91V109H113.094V98.4336H114.91V102.906H116.092L119.646 98.4336H121.834L117.654 103.512L122.186 109H119.891L116.229 104.498ZM127.967 109.195C126.535 109.195 125.369 108.727 124.471 107.789C123.572 106.845 123.123 105.585 123.123 104.01V103.678C123.123 102.63 123.322 101.695 123.719 100.875C124.122 100.048 124.682 99.4036 125.398 98.9414C126.121 98.4727 126.902 98.2383 127.742 98.2383C129.116 98.2383 130.184 98.6908 130.945 99.5957C131.707 100.501 132.088 101.796 132.088 103.482V104.234H124.93C124.956 105.276 125.258 106.119 125.838 106.764C126.424 107.402 127.166 107.721 128.064 107.721C128.702 107.721 129.243 107.59 129.686 107.33C130.128 107.07 130.516 106.725 130.848 106.295L131.951 107.154C131.066 108.515 129.738 109.195 127.967 109.195ZM127.742 99.7227C127.013 99.7227 126.401 99.9896 125.906 100.523C125.411 101.051 125.105 101.793 124.988 102.75H130.281V102.613C130.229 101.695 129.982 100.986 129.539 100.484C129.096 99.9766 128.497 99.7227 127.742 99.7227ZM141.922 99.8984H138.377V109H136.57V99.8984H133.094V98.4336H141.922V99.8984ZM150.516 98.4336H152.322V109H150.516V101.295L145.643 109H143.836V98.4336H145.643V106.148L150.516 98.4336ZM163.855 109H162.049V104.488H157.195V109H155.379V98.4336H157.195V103.014H162.049V98.4336H163.855V109ZM173.592 99.9277H168.719V109H166.902V98.4336H173.592V99.9277Z" fill="#252835"></path> </svg> 