<?xml version="1.0" encoding="UTF-8"?> <svg xmlns="http://www.w3.org/2000/svg" width="210" height="160" viewBox="0 0 210 160" fill="none"> <path d="M157.699 125.4C130.899 147.9 72.4995 159.8 49.9995 133C27.4995 106.2 49.2995 50.7001 76.0995 28.2001C102.899 5.70005 142.899 9.20005 165.499 36.0001C188.099 62.8 184.499 102.9 157.699 125.4Z" fill="#FFDF57"></path> <path d="M53.2996 130.2L36.0996 132.6L47.8996 146.7L53.2996 130.2Z" fill="#EDD262"></path> <path d="M157.7 125.4C182.1 104.9 187.2 69.9 170.9 43.5C170.9 43.5 201.4 135.6 69.5996 145.4C96.8996 153.9 136.8 142.9 157.7 125.4Z" fill="#E9CA25"></path> <path d="M91 39.1C76.9 48.1 68.9 60.7 65.5 55.4C62.1 50.1 70.8 38.6 84.9 29.5C99 20.4 113.1 17.4 116.5 22.7C119.9 28 105.1 30 91 39.1Z" fill="#F9E698"></path> <path d="M75.2588 88H73.5625V76.5918H67.252V88H65.5645V75.2031H75.2588V88ZM82.0264 88.1758C80.7373 88.1758 79.6885 87.7539 78.8799 86.9102C78.0713 86.0605 77.667 84.9268 77.667 83.5088V83.21C77.667 82.2666 77.8457 81.4258 78.2031 80.6875C78.5664 79.9434 79.0703 79.3633 79.7148 78.9473C80.3652 78.5254 81.0684 78.3145 81.8242 78.3145C83.0605 78.3145 84.0215 78.7217 84.707 79.5361C85.3926 80.3506 85.7354 81.5166 85.7354 83.0342V83.7109H79.293C79.3164 84.6484 79.5889 85.4072 80.1104 85.9873C80.6377 86.5615 81.3057 86.8486 82.1143 86.8486C82.6885 86.8486 83.1748 86.7314 83.5732 86.4971C83.9717 86.2627 84.3203 85.9521 84.6191 85.5654L85.6123 86.3389C84.8154 87.5635 83.6201 88.1758 82.0264 88.1758ZM81.8242 79.6504C81.168 79.6504 80.6172 79.8906 80.1719 80.3711C79.7266 80.8457 79.4512 81.5137 79.3457 82.375H84.1094V82.252C84.0625 81.4258 83.8398 80.7871 83.4414 80.3359C83.043 79.8789 82.5039 79.6504 81.8242 79.6504ZM87.5459 86.6729L88.1084 85.9785C88.7412 85.1582 89.1016 83.9277 89.1895 82.2871L89.3389 78.4902H95.4648V86.6729H96.6865V90.7949H95.0605V88H88.4248V90.7949H86.7988L86.8076 86.6729H87.5459ZM89.4707 86.6729H93.8389V79.9932H90.9121L90.8154 82.2607C90.7158 84.1533 90.2676 85.624 89.4707 86.6729ZM104.359 88C104.266 87.8125 104.189 87.4785 104.131 86.998C103.375 87.7832 102.473 88.1758 101.424 88.1758C100.486 88.1758 99.7158 87.9121 99.1123 87.3848C98.5146 86.8516 98.2158 86.1777 98.2158 85.3633C98.2158 84.373 98.5908 83.6055 99.3408 83.0605C100.097 82.5098 101.157 82.2344 102.522 82.2344H104.104V81.4873C104.104 80.9189 103.935 80.4678 103.595 80.1338C103.255 79.7939 102.754 79.624 102.092 79.624C101.512 79.624 101.025 79.7705 100.633 80.0635C100.24 80.3564 100.044 80.7109 100.044 81.127H98.4092C98.4092 80.6523 98.5762 80.1953 98.9102 79.7559C99.25 79.3105 99.707 78.959 100.281 78.7012C100.861 78.4434 101.497 78.3145 102.188 78.3145C103.284 78.3145 104.143 78.5898 104.764 79.1406C105.385 79.6855 105.707 80.4385 105.73 81.3994V85.7764C105.73 86.6494 105.842 87.3438 106.064 87.8594V88H104.359ZM101.661 86.7607C102.171 86.7607 102.654 86.6289 103.111 86.3652C103.568 86.1016 103.899 85.7588 104.104 85.3369V83.3857H102.83C100.838 83.3857 99.8418 83.9688 99.8418 85.1348C99.8418 85.6445 100.012 86.043 100.352 86.3301C100.691 86.6172 101.128 86.7607 101.661 86.7607ZM114.423 79.835H110.037V88H108.402V78.4902H114.423V79.835ZM115.231 83.1572C115.231 82.2256 115.413 81.3877 115.776 80.6436C116.146 79.8994 116.655 79.3252 117.306 78.9209C117.962 78.5166 118.709 78.3145 119.547 78.3145C120.842 78.3145 121.888 78.7627 122.685 79.6592C123.487 80.5557 123.889 81.748 123.889 83.2363V83.3506C123.889 84.2764 123.71 85.1084 123.353 85.8467C123.001 86.5791 122.494 87.1504 121.832 87.5605C121.176 87.9707 120.42 88.1758 119.564 88.1758C118.275 88.1758 117.229 87.7275 116.427 86.8311C115.63 85.9346 115.231 84.748 115.231 83.2715V83.1572ZM116.866 83.3506C116.866 84.4053 117.109 85.252 117.596 85.8906C118.088 86.5293 118.744 86.8486 119.564 86.8486C120.391 86.8486 121.047 86.5264 121.533 85.8818C122.02 85.2314 122.263 84.3232 122.263 83.1572C122.263 82.1143 122.014 81.2705 121.516 80.626C121.023 79.9756 120.367 79.6504 119.547 79.6504C118.744 79.6504 118.097 79.9697 117.604 80.6084C117.112 81.2471 116.866 82.1611 116.866 83.3506ZM132.071 79.835H127.686V88H126.051V78.4902H132.071V79.835ZM139.639 78.4902H141.265V88H139.639V81.0654L135.253 88H133.627V78.4902H135.253V85.4336L139.639 78.4902ZM146.837 83.9482H145.65V88H144.016V78.4902H145.65V82.5156H146.714L149.913 78.4902H151.882L148.12 83.0605L152.198 88H150.133L146.837 83.9482ZM159.467 88C159.373 87.8125 159.297 87.4785 159.238 86.998C158.482 87.7832 157.58 88.1758 156.531 88.1758C155.594 88.1758 154.823 87.9121 154.22 87.3848C153.622 86.8516 153.323 86.1777 153.323 85.3633C153.323 84.373 153.698 83.6055 154.448 83.0605C155.204 82.5098 156.265 82.2344 157.63 82.2344H159.212V81.4873C159.212 80.9189 159.042 80.4678 158.702 80.1338C158.362 79.7939 157.861 79.624 157.199 79.624C156.619 79.624 156.133 79.7705 155.74 80.0635C155.348 80.3564 155.151 80.7109 155.151 81.127H153.517C153.517 80.6523 153.684 80.1953 154.018 79.7559C154.357 79.3105 154.814 78.959 155.389 78.7012C155.969 78.4434 156.604 78.3145 157.296 78.3145C158.392 78.3145 159.25 78.5898 159.871 79.1406C160.492 79.6855 160.814 80.4385 160.838 81.3994V85.7764C160.838 86.6494 160.949 87.3438 161.172 87.8594V88H159.467ZM156.769 86.7607C157.278 86.7607 157.762 86.6289 158.219 86.3652C158.676 86.1016 159.007 85.7588 159.212 85.3369V83.3857H157.938C155.945 83.3857 154.949 83.9688 154.949 85.1348C154.949 85.6445 155.119 86.043 155.459 86.3301C155.799 86.6172 156.235 86.7607 156.769 86.7607Z" fill="#252835"></path> </svg> 