<?xml version="1.0" encoding="UTF-8"?> <svg xmlns="http://www.w3.org/2000/svg" width="264" height="196" viewBox="0 0 264 196" fill="none"> <path d="M177.9 123.4C158.3 146.3 110.6 164.6 87.7004 145C64.8004 125.4 75.5004 75.4 95.1004 52.6C114.7 29.8 149.1 27 171.9 46.6C194.7 66.2 197.5 100.6 177.9 123.4Z" fill="#FFDF57"></path> <path d="M90.1004 142.2L75.9004 146.7L87.9004 157L90.1004 142.2Z" fill="#E9CA25"></path> <path d="M177.9 123.4C195.7 102.6 195.1 72.2 177.5 52.1C177.5 52.1 216.3 125.8 106.1 152.8C130.5 156.2 162.7 141.2 177.9 123.4Z" fill="#E9CA25"></path> <path d="M115.6 53.8C103.6 60.6 96.5998 70.9 93.7998 66.2C91.0998 61.4 98.5998 52 110.7 45.2C122.8 38.4 134.7 36.7 137.4 41.5C140.1 46.3 127.6 47 115.6 53.8Z" fill="#F9E698"></path> <path d="M113.465 97H111.297V89.4419H103.054V97H100.898V80.6484H103.054V87.6787H111.297V80.6484H113.465V97ZM124.471 97C124.351 96.7604 124.254 96.3337 124.179 95.7197C123.213 96.723 122.06 97.2246 120.72 97.2246C119.522 97.2246 118.537 96.8877 117.766 96.2139C117.002 95.5326 116.621 94.6715 116.621 93.6309C116.621 92.3656 117.1 91.3848 118.058 90.6885C119.024 89.9847 120.379 89.6328 122.124 89.6328H124.145V88.6782C124.145 87.952 123.928 87.3755 123.494 86.9487C123.059 86.5145 122.419 86.2974 121.573 86.2974C120.832 86.2974 120.211 86.4845 119.709 86.8589C119.207 87.2332 118.957 87.6862 118.957 88.2178H116.868C116.868 87.6113 117.081 87.0273 117.508 86.4658C117.942 85.8968 118.526 85.4476 119.26 85.1182C120.001 84.7887 120.813 84.624 121.697 84.624C123.097 84.624 124.194 84.9759 124.987 85.6797C125.781 86.376 126.193 87.3381 126.223 88.5659V94.1587C126.223 95.2743 126.365 96.1615 126.649 96.8203V97H124.471ZM121.023 95.4165C121.674 95.4165 122.292 95.248 122.876 94.9111C123.46 94.5742 123.883 94.1362 124.145 93.5972V91.104H122.517C119.971 91.104 118.698 91.849 118.698 93.3389C118.698 93.9902 118.915 94.4993 119.35 94.8662C119.784 95.2331 120.342 95.4165 121.023 95.4165ZM133.275 93.9565L136.105 84.8486H138.329L133.444 98.8755C132.688 100.897 131.486 101.908 129.839 101.908L129.446 101.874L128.671 101.728V100.043L129.232 100.088C129.936 100.088 130.483 99.9461 130.872 99.6616C131.269 99.3771 131.595 98.8568 131.849 98.1006L132.31 96.8652L127.975 84.8486H130.243L133.275 93.9565ZM143.978 91.8228H142.462V97H140.373V84.8486H142.462V89.9922H143.821L147.909 84.8486H150.424L145.618 90.6885L150.829 97H148.189L143.978 91.8228ZM160.116 97C159.996 96.7604 159.899 96.3337 159.824 95.7197C158.858 96.723 157.705 97.2246 156.365 97.2246C155.167 97.2246 154.183 96.8877 153.412 96.2139C152.648 95.5326 152.266 94.6715 152.266 93.6309C152.266 92.3656 152.745 91.3848 153.704 90.6885C154.669 89.9847 156.025 89.6328 157.769 89.6328H159.791V88.6782C159.791 87.952 159.573 87.3755 159.139 86.9487C158.705 86.5145 158.065 86.2974 157.219 86.2974C156.478 86.2974 155.856 86.4845 155.354 86.8589C154.853 87.2332 154.602 87.6862 154.602 88.2178H152.513C152.513 87.6113 152.727 87.0273 153.153 86.4658C153.588 85.8968 154.172 85.4476 154.905 85.1182C155.646 84.7887 156.459 84.624 157.342 84.624C158.742 84.624 159.839 84.9759 160.633 85.6797C161.426 86.376 161.838 87.3381 161.868 88.5659V94.1587C161.868 95.2743 162.01 96.1615 162.295 96.8203V97H160.116ZM156.668 95.4165C157.32 95.4165 157.938 95.248 158.521 94.9111C159.105 94.5742 159.528 94.1362 159.791 93.5972V91.104H158.162C155.617 91.104 154.344 91.849 154.344 93.3389C154.344 93.9902 154.561 94.4993 154.995 94.8662C155.429 95.2331 155.987 95.4165 156.668 95.4165Z" fill="#252835"></path> </svg> 