<?xml version="1.0" encoding="UTF-8"?> <svg xmlns="http://www.w3.org/2000/svg" width="256" height="186" viewBox="0 0 256 186" fill="none"> <path d="M166.4 107.7C148.9 129.1 105.4 146.8 84.1 129.4C62.8 112 71.5 65.8 89 44.4C106.5 23 138 19.8 159.4 37.3C180.8 54.8 183.9 86.3 166.4 107.7Z" fill="#96CD7C"></path> <path d="M86.1992 126.7L73.1992 131.1L84.3992 140.3L86.1992 126.7Z" fill="#9AD17D"></path> <path d="M166.4 107.7C182.3 88.2 181.1 60.3 164.6 42.3C164.6 42.3 201.7 109.2 101.1 136.2C123.5 138.8 152.8 124.3 166.4 107.7Z" fill="#84CB66"></path> <path d="M91.0063 84.21H89.71V89H88.3037V78.3359H89.71V83.0381H90.8086L94.5366 78.3359H96.2871L92.2148 83.5068L96.5874 89H94.8662L91.0063 84.21ZM99.9639 87.0151L101.81 81.0752H103.26L100.074 90.2231C99.5806 91.5415 98.7969 92.2007 97.7227 92.2007L97.4663 92.1787L96.9609 92.0835V90.9849L97.3271 91.0142C97.7861 91.0142 98.1426 90.9214 98.3965 90.7358C98.6553 90.5503 98.8677 90.2109 99.0337 89.7178L99.334 88.9121L96.5068 81.0752H97.9863L99.9639 87.0151ZM110.665 81.0752V89H109.302V82.1958H106.607L106.446 85.1621C106.358 86.5244 106.128 87.4985 105.757 88.0845C105.391 88.6704 104.808 88.9756 104.007 89H103.465V87.8062L103.853 87.7769C104.292 87.728 104.607 87.4741 104.798 87.0151C104.988 86.5562 105.11 85.7065 105.164 84.4663L105.311 81.0752H110.665ZM117.967 81.0752H119.322V89H117.967V83.2212L114.312 89H112.957V81.0752H114.312V86.8613L117.967 81.0752ZM127.972 89H126.617V85.6162H122.977V89H121.614V81.0752H122.977V84.5103H126.617V81.0752H127.972V89ZM135.047 89C134.969 88.8438 134.905 88.5654 134.856 88.165C134.227 88.8193 133.475 89.1465 132.601 89.1465C131.819 89.1465 131.177 88.9268 130.674 88.4873C130.176 88.043 129.927 87.4814 129.927 86.8027C129.927 85.9775 130.24 85.3379 130.865 84.8838C131.495 84.4248 132.378 84.1953 133.516 84.1953H134.834V83.5728C134.834 83.0991 134.693 82.7231 134.41 82.4448C134.126 82.1616 133.709 82.02 133.157 82.02C132.674 82.02 132.269 82.1421 131.941 82.3862C131.614 82.6304 131.451 82.9258 131.451 83.2725H130.088C130.088 82.877 130.228 82.4961 130.506 82.1299C130.789 81.7588 131.17 81.4658 131.648 81.251C132.132 81.0361 132.662 80.9287 133.238 80.9287C134.151 80.9287 134.866 81.1582 135.384 81.6172C135.901 82.0713 136.17 82.6987 136.189 83.4995V87.147C136.189 87.8745 136.282 88.4531 136.468 88.8828V89H135.047ZM132.798 87.9673C133.223 87.9673 133.626 87.8574 134.007 87.6377C134.388 87.418 134.664 87.1323 134.834 86.7808V85.1548H133.772C132.112 85.1548 131.282 85.6406 131.282 86.6123C131.282 87.0371 131.424 87.3691 131.707 87.6084C131.99 87.8477 132.354 87.9673 132.798 87.9673ZM145.008 85.1255C145.008 86.3315 144.732 87.3032 144.18 88.0405C143.628 88.7778 142.881 89.1465 141.939 89.1465C140.977 89.1465 140.22 88.8413 139.668 88.231V92.0469H138.313V81.0752H139.551L139.617 81.9541C140.169 81.2705 140.936 80.9287 141.917 80.9287C142.869 80.9287 143.621 81.2876 144.173 82.0054C144.729 82.7231 145.008 83.7217 145.008 85.001V85.1255ZM143.653 84.9717C143.653 84.0781 143.462 83.3726 143.082 82.855C142.701 82.3374 142.178 82.0786 141.514 82.0786C140.694 82.0786 140.079 82.4424 139.668 83.1699V86.9565C140.074 87.6792 140.694 88.0405 141.529 88.0405C142.178 88.0405 142.693 87.7842 143.074 87.2715C143.46 86.7539 143.653 85.9873 143.653 84.9717ZM151.863 81.0752H153.218V89H151.863V83.2212L148.208 89H146.854V81.0752H148.208V86.8613L151.863 81.0752ZM161.451 81.0752V89H160.088V85.9165H158.045L156.177 89H154.712L156.705 85.7114C156.197 85.5259 155.806 85.2402 155.533 84.8545C155.264 84.4639 155.13 84.0098 155.13 83.4922C155.13 82.7695 155.401 82.1885 155.943 81.749C156.485 81.3047 157.21 81.0801 158.118 81.0752H161.451ZM156.492 83.5068C156.492 83.8926 156.624 84.2051 156.888 84.4443C157.151 84.6787 157.5 84.7983 157.935 84.8032H160.088V82.1738H158.14C157.637 82.1738 157.237 82.2983 156.939 82.5474C156.641 82.7915 156.492 83.1113 156.492 83.5068Z" fill="#252835"></path> <path d="M110.8 46.5C98.3003 53.6 91.2003 64.8 88.1003 59.4C85.0003 54 92.7003 43.8 105.2 36.7C117.7 29.6 130.4 28.2 133.5 33.7C136.6 39.2 123.3 39.4 110.8 46.5Z" fill="#ABD796"></path> </svg> 