<?xml version="1.0" encoding="UTF-8"?> <svg xmlns="http://www.w3.org/2000/svg" width="264" height="182" viewBox="0 0 264 182" fill="none"> <path d="M171 126.7C149.8 144.5 103.8 153.8 86.1004 132.7C68.4004 111.6 85.5004 67.9 106.7 50.1C127.9 32.3 159.4 35.1 177.2 56.3C195 77.5 192.2 109 171 126.7Z" fill="#75AEB9"></path> <path d="M88.6996 130.5L75.0996 132.4L84.4996 143.5L88.6996 130.5Z" fill="#4E9DA3"></path> <path d="M171 126.7C190.3 110.5 194.3 82.9 181.4 62.1C181.4 62.1 205.4 134.7 101.5 142.5C123.1 149.3 154.6 140.5 171 126.7Z" fill="#4E9DA3"></path> <path d="M120.599 58.3C108.199 65.3 100.899 76 98.0987 71.1C95.2987 66.1 103.099 56.4 115.499 49.3C127.899 42.2 140.299 40.6 143.099 45.5C145.899 50.5 132.999 51.2 120.599 58.3Z" fill="#91BEC7"></path> <path d="M100.822 95.165C100.977 96.1611 101.29 96.8612 101.76 97.2651C102.236 97.6636 102.917 97.8628 103.802 97.8628C104.76 97.8628 105.515 97.4893 106.068 96.7422C106.627 95.9951 106.912 94.9575 106.923 93.6294H102.167V92.3179H106.923C106.923 91.0063 106.636 89.9688 106.06 89.2051C105.49 88.4414 104.69 88.0596 103.661 88.0596C102.831 88.0596 102.184 88.2754 101.719 88.707C101.259 89.1387 100.961 89.8359 100.822 90.7988H99.2202C99.3475 89.5316 99.7985 88.541 100.573 87.8271C101.348 87.1077 102.377 86.748 103.661 86.748C104.635 86.748 105.49 86.9805 106.226 87.4453C106.968 87.9046 107.535 88.5632 107.928 89.4209C108.326 90.2731 108.525 91.2554 108.525 92.3677V93.5713C108.525 94.6836 108.329 95.6659 107.936 96.5181C107.543 97.3703 106.987 98.026 106.268 98.4854C105.554 98.9391 104.732 99.166 103.802 99.166C102.485 99.166 101.428 98.8201 100.631 98.1284C99.84 97.4312 99.3696 96.4434 99.2202 95.165H100.822ZM113.415 95.1733H112.294V99H110.75V90.0186H112.294V93.8203H113.298L116.32 90.0186H118.179L114.626 94.335L118.478 99H116.527L113.415 95.1733ZM119.208 94.4263C119.208 93.5464 119.38 92.755 119.723 92.0522C120.072 91.3494 120.553 90.8071 121.167 90.4253C121.787 90.0435 122.493 89.8525 123.284 89.8525C124.507 89.8525 125.495 90.2759 126.248 91.1226C127.006 91.9692 127.385 93.0954 127.385 94.501V94.6089C127.385 95.4832 127.216 96.269 126.878 96.9663C126.546 97.658 126.068 98.1976 125.442 98.585C124.823 98.9723 124.109 99.166 123.301 99.166C122.083 99.166 121.096 98.7427 120.337 97.896C119.585 97.0493 119.208 95.9287 119.208 94.5342V94.4263ZM120.752 94.6089C120.752 95.605 120.982 96.4046 121.441 97.0078C121.906 97.611 122.526 97.9126 123.301 97.9126C124.081 97.9126 124.701 97.6082 125.16 96.9995C125.619 96.3853 125.849 95.5275 125.849 94.4263C125.849 93.4412 125.614 92.6444 125.144 92.0356C124.679 91.4214 124.059 91.1143 123.284 91.1143C122.526 91.1143 121.915 91.4159 121.45 92.019C120.985 92.6222 120.752 93.4855 120.752 94.6089ZM136.541 90.0186V99H134.997V91.2886H131.942L131.759 94.6504C131.66 96.1943 131.4 97.2983 130.979 97.9624C130.564 98.6265 129.903 98.9723 128.995 99H128.381V97.647L128.821 97.6138C129.319 97.5584 129.676 97.2707 129.892 96.7505C130.107 96.2303 130.246 95.2674 130.307 93.8618L130.473 90.0186H136.541ZM138.599 94.4263C138.599 93.5464 138.771 92.755 139.114 92.0522C139.462 91.3494 139.944 90.8071 140.558 90.4253C141.178 90.0435 141.883 89.8525 142.675 89.8525C143.898 89.8525 144.886 90.2759 145.638 91.1226C146.396 91.9692 146.775 93.0954 146.775 94.501V94.6089C146.775 95.4832 146.607 96.269 146.269 96.9663C145.937 97.658 145.458 98.1976 144.833 98.585C144.213 98.9723 143.499 99.166 142.691 99.166C141.474 99.166 140.486 98.7427 139.728 97.896C138.975 97.0493 138.599 95.9287 138.599 94.5342V94.4263ZM140.143 94.6089C140.143 95.605 140.373 96.4046 140.832 97.0078C141.297 97.611 141.917 97.9126 142.691 97.9126C143.472 97.9126 144.091 97.6082 144.551 96.9995C145.01 96.3853 145.24 95.5275 145.24 94.4263C145.24 93.4412 145.005 92.6444 144.534 92.0356C144.069 91.4214 143.45 91.1143 142.675 91.1143C141.917 91.1143 141.305 91.4159 140.84 92.019C140.375 92.6222 140.143 93.4855 140.143 94.6089ZM154.503 91.2886H150.361V99H148.817V90.0186H154.503V91.2886ZM161.65 90.0186H163.186V99H161.65V92.4507L157.508 99H155.973V90.0186H157.508V96.5762L161.65 90.0186ZM172.516 90.0186V99H170.972V95.5054H168.656L166.54 99H164.879L167.137 95.2729C166.562 95.0627 166.119 94.7389 165.809 94.3018C165.505 93.859 165.353 93.3444 165.353 92.7578C165.353 91.9388 165.66 91.2803 166.274 90.7822C166.888 90.2786 167.71 90.0241 168.739 90.0186H172.516ZM166.896 92.7744C166.896 93.2116 167.046 93.5658 167.345 93.8369C167.644 94.1025 168.039 94.2381 168.532 94.2437H170.972V91.2637H168.764C168.194 91.2637 167.74 91.4048 167.403 91.687C167.065 91.9637 166.896 92.3262 166.896 92.7744Z" fill="#252835"></path> </svg> 