<?xml version="1.0" encoding="UTF-8"?> <svg xmlns="http://www.w3.org/2000/svg" width="282" height="208" viewBox="0 0 282 208" fill="none"> <path d="M194.301 148.9C162.601 175.5 93.8009 189.5 67.2009 157.8C40.6009 126.1 66.4009 60.8 98.0009 34.2C129.601 7.6 176.901 11.7 203.501 43.4C230.101 75.1 226.001 122.3 194.301 148.9Z" fill="#96CD7C"></path> <path d="M71.1008 154.5L50.8008 157.4L64.8008 174L71.1008 154.5Z" fill="#9AD17D"></path> <path d="M194.3 148.9C223.2 124.7 229.1 83.3 209.9 52.2C209.9 52.2 245.9 160.9 90.4004 172.5C122.6 182.6 169.7 169.5 194.3 148.9Z" fill="#84CB66"></path> <path d="M115.701 46.9C99.0011 57.6 89.5011 72.4 85.5011 66.2C81.5011 60 91.8011 46.3 108.401 35.7C125.001 25.1 141.701 21.5 145.701 27.7C149.701 33.9 132.301 36.3 115.701 46.9Z" fill="#ABD796"></path> <path d="M82.0723 88.7812L86.7207 100.383L91.3691 88.7812H93.8008V103H91.9258V97.4629L92.1016 91.4863L87.4336 103H85.998L81.3398 91.5156L81.5254 97.4629V103H79.6504V88.7812H82.0723ZM101.213 103.195C99.7806 103.195 98.6152 102.727 97.7168 101.789C96.8184 100.845 96.3691 99.5853 96.3691 98.0098V97.6777C96.3691 96.6296 96.5677 95.6953 96.9648 94.875C97.3685 94.0482 97.9284 93.4036 98.6445 92.9414C99.3672 92.4727 100.148 92.2383 100.988 92.2383C102.362 92.2383 103.43 92.6908 104.191 93.5957C104.953 94.5007 105.334 95.7962 105.334 97.4824V98.2344H98.1758C98.2018 99.276 98.5046 100.119 99.084 100.764C99.6699 101.402 100.412 101.721 101.311 101.721C101.949 101.721 102.489 101.59 102.932 101.33C103.374 101.07 103.762 100.725 104.094 100.295L105.197 101.154C104.312 102.515 102.984 103.195 101.213 103.195ZM100.988 93.7227C100.259 93.7227 99.6471 93.9896 99.1523 94.5234C98.6576 95.0508 98.3516 95.793 98.2344 96.75H103.527V96.6133C103.475 95.6953 103.228 94.9857 102.785 94.4844C102.342 93.9766 101.743 93.7227 100.988 93.7227ZM116.066 103H114.26V98.4883H109.406V103H107.59V92.4336H109.406V97.0137H114.26V92.4336H116.066V103ZM123.361 103.195C121.929 103.195 120.764 102.727 119.865 101.789C118.967 100.845 118.518 99.5853 118.518 98.0098V97.6777C118.518 96.6296 118.716 95.6953 119.113 94.875C119.517 94.0482 120.077 93.4036 120.793 92.9414C121.516 92.4727 122.297 92.2383 123.137 92.2383C124.51 92.2383 125.578 92.6908 126.34 93.5957C127.102 94.5007 127.482 95.7962 127.482 97.4824V98.2344H120.324C120.35 99.276 120.653 100.119 121.232 100.764C121.818 101.402 122.561 101.721 123.459 101.721C124.097 101.721 124.637 101.59 125.08 101.33C125.523 101.07 125.91 100.725 126.242 100.295L127.346 101.154C126.46 102.515 125.132 103.195 123.361 103.195ZM123.137 93.7227C122.408 93.7227 121.796 93.9896 121.301 94.5234C120.806 95.0508 120.5 95.793 120.383 96.75H125.676V96.6133C125.624 95.6953 125.376 94.9857 124.934 94.4844C124.491 93.9766 123.892 93.7227 123.137 93.7227ZM129.494 101.525L130.119 100.754C130.822 99.8424 131.223 98.4753 131.32 96.6523L131.486 92.4336H138.293V101.525H139.65V106.105H137.844V103H130.471V106.105H128.664L128.674 101.525H129.494ZM131.633 101.525H136.486V94.1035H133.234L133.127 96.623C133.016 98.7259 132.518 100.36 131.633 101.525ZM150.08 98.4102H148.811V103H147.004V98.4102H145.734L142.775 103H140.49L144.27 97.5312L140.852 92.4336H143.039L145.764 96.8086H147.004V92.4336H148.811V96.8086H150.041L152.785 92.4336H154.973L151.545 97.541L155.324 103H153.039L150.08 98.4102ZM163.049 100.607L166.643 92.4336H168.898V103H167.092V95.3145L163.674 103H162.424L158.938 95.1484V103H157.131V92.4336H159.475L163.049 100.607ZM176.193 103.195C174.761 103.195 173.596 102.727 172.697 101.789C171.799 100.845 171.35 99.5853 171.35 98.0098V97.6777C171.35 96.6296 171.548 95.6953 171.945 94.875C172.349 94.0482 172.909 93.4036 173.625 92.9414C174.348 92.4727 175.129 92.2383 175.969 92.2383C177.342 92.2383 178.41 92.6908 179.172 93.5957C179.934 94.5007 180.314 95.7962 180.314 97.4824V98.2344H173.156C173.182 99.276 173.485 100.119 174.064 100.764C174.65 101.402 175.393 101.721 176.291 101.721C176.929 101.721 177.469 101.59 177.912 101.33C178.355 101.07 178.742 100.725 179.074 100.295L180.178 101.154C179.292 102.515 177.964 103.195 176.193 103.195ZM175.969 93.7227C175.24 93.7227 174.628 93.9896 174.133 94.5234C173.638 95.0508 173.332 95.793 173.215 96.75H178.508V96.6133C178.456 95.6953 178.208 94.9857 177.766 94.4844C177.323 93.9766 176.724 93.7227 175.969 93.7227ZM191.047 103H189.24V98.4883H184.387V103H182.57V92.4336H184.387V97.0137H189.24V92.4336H191.047V103ZM201.809 93.8984H198.264V103H196.457V93.8984H192.98V92.4336H201.809V93.8984Z" fill="#252835"></path> </svg> 