<?xml version="1.0" encoding="UTF-8"?> <svg xmlns="http://www.w3.org/2000/svg" width="255" height="191" viewBox="0 0 255 191" fill="none"> <path d="M182.801 142.7C150.101 170.1 79.2012 184.5 51.8012 151.9C24.4012 119.3 50.9012 51.9 83.6012 24.5C116.301 -2.90001 164.901 1.29999 192.401 34C219.901 66.7 215.501 115.3 182.801 142.7Z" fill="#75AEB9"></path> <path d="M55.8004 148.6L34.9004 151.5L49.3004 168.7L55.8004 148.6Z" fill="#4E9DA3"></path> <path d="M182.801 142.7C212.501 117.7 218.701 75.1 198.901 43C198.901 43 236.001 155.1 75.7012 167C108.901 177.5 157.501 164 182.801 142.7Z" fill="#4E9DA3"></path> <path d="M66.1094 94.4883C65.9336 95.9922 65.377 97.1543 64.4395 97.9746C63.5085 98.7884 62.2682 99.1953 60.7188 99.1953C59.0391 99.1953 57.6914 98.5931 56.6758 97.3887C55.6667 96.1842 55.1621 94.5729 55.1621 92.5547V91.1875C55.1621 89.8659 55.3965 88.7038 55.8652 87.7012C56.3405 86.6986 57.0111 85.9303 57.877 85.3965C58.7428 84.8561 59.7454 84.5859 60.8848 84.5859C62.3952 84.5859 63.6061 85.0091 64.5176 85.8555C65.429 86.6953 65.9596 87.8607 66.1094 89.3516H64.2246C64.0618 88.2188 63.707 87.3984 63.1602 86.8906C62.6198 86.3828 61.8613 86.1289 60.8848 86.1289C59.6868 86.1289 58.7461 86.5716 58.0625 87.457C57.3854 88.3424 57.0469 89.6022 57.0469 91.2363V92.6133C57.0469 94.1562 57.3691 95.3835 58.0137 96.2949C58.6582 97.2064 59.5599 97.6621 60.7188 97.6621C61.7604 97.6621 62.5579 97.4277 63.1113 96.959C63.6712 96.4837 64.0423 95.6602 64.2246 94.4883H66.1094ZM76.2461 89.8984H72.7012V99H70.8945V89.8984H67.418V88.4336H76.2461V89.8984ZM86.9297 93.834C86.9297 95.4421 86.5618 96.7376 85.8262 97.7207C85.0905 98.7038 84.0944 99.1953 82.8379 99.1953C81.5553 99.1953 80.5462 98.7884 79.8105 97.9746V103.062H78.0039V88.4336H79.6543L79.7422 89.6055C80.4779 88.694 81.5 88.2383 82.8086 88.2383C84.0781 88.2383 85.0807 88.7168 85.8164 89.6738C86.5586 90.6309 86.9297 91.9622 86.9297 93.668V93.834ZM85.123 93.6289C85.123 92.4375 84.8691 91.4967 84.3613 90.8066C83.8535 90.1165 83.1569 89.7715 82.2715 89.7715C81.1777 89.7715 80.3574 90.2565 79.8105 91.2266V96.2754C80.3509 97.2389 81.1777 97.7207 82.291 97.7207C83.1569 97.7207 83.8438 97.3789 84.3516 96.6953C84.8659 96.0052 85.123 94.9831 85.123 93.6289ZM88.7559 93.6191C88.7559 92.584 88.9577 91.653 89.3613 90.8262C89.7715 89.9993 90.3379 89.3613 91.0605 88.9121C91.7897 88.4629 92.6198 88.2383 93.5508 88.2383C94.9896 88.2383 96.1517 88.7363 97.0371 89.7324C97.929 90.7285 98.375 92.0534 98.375 93.707V93.834C98.375 94.8626 98.1764 95.7871 97.7793 96.6074C97.3887 97.4212 96.8255 98.056 96.0898 98.5117C95.3607 98.9674 94.5208 99.1953 93.5703 99.1953C92.138 99.1953 90.9759 98.6973 90.084 97.7012C89.1986 96.7051 88.7559 95.3867 88.7559 93.7461V93.6191ZM90.5723 93.834C90.5723 95.0059 90.8424 95.9466 91.3828 96.6562C91.9297 97.3659 92.6589 97.7207 93.5703 97.7207C94.4883 97.7207 95.2174 97.3626 95.7578 96.6465C96.2982 95.9238 96.5684 94.9147 96.5684 93.6191C96.5684 92.4603 96.2917 91.5228 95.7383 90.8066C95.1914 90.084 94.4622 89.7227 93.5508 89.7227C92.6589 89.7227 91.9395 90.0775 91.3926 90.7871C90.8457 91.4967 90.5723 92.5124 90.5723 93.834ZM107.477 88.4336H109.283V99H107.477V91.2949L102.604 99H100.797V88.4336H102.604V96.1484L107.477 88.4336ZM120.035 89.8984H116.49V99H114.684V89.8984H111.207V88.4336H120.035V89.8984ZM125.396 99.1953C123.964 99.1953 122.799 98.7266 121.9 97.7891C121.002 96.8451 120.553 95.5853 120.553 94.0098V93.6777C120.553 92.6296 120.751 91.6953 121.148 90.875C121.552 90.0482 122.112 89.4036 122.828 88.9414C123.551 88.4727 124.332 88.2383 125.172 88.2383C126.546 88.2383 127.613 88.6908 128.375 89.5957C129.137 90.5007 129.518 91.7962 129.518 93.4824V94.2344H122.359C122.385 95.276 122.688 96.1191 123.268 96.7637C123.854 97.4017 124.596 97.7207 125.494 97.7207C126.132 97.7207 126.673 97.5905 127.115 97.3301C127.558 97.0697 127.945 96.7246 128.277 96.2949L129.381 97.1543C128.495 98.515 127.167 99.1953 125.396 99.1953ZM125.172 89.7227C124.443 89.7227 123.831 89.9896 123.336 90.5234C122.841 91.0508 122.535 91.793 122.418 92.75H127.711V92.6133C127.659 91.6953 127.411 90.9857 126.969 90.4844C126.526 89.9766 125.927 89.7227 125.172 89.7227ZM140.279 88.4336V99H138.463V89.9277H134.869L134.654 93.8828C134.537 95.6992 134.231 96.998 133.736 97.7793C133.248 98.5605 132.47 98.9674 131.402 99H130.68V97.4082L131.197 97.3691C131.783 97.304 132.203 96.9655 132.457 96.3535C132.711 95.7415 132.874 94.6087 132.945 92.9551L133.141 88.4336H140.279ZM145.152 92.0762H147.896C149.094 92.0892 150.042 92.4017 150.738 93.0137C151.435 93.6257 151.783 94.4557 151.783 95.5039C151.783 96.5586 151.425 97.4049 150.709 98.043C149.993 98.681 149.029 99 147.818 99H143.346V88.4336H145.152V92.0762ZM145.152 93.5508V97.5254H147.838C148.515 97.5254 149.039 97.3529 149.41 97.0078C149.781 96.6562 149.967 96.1777 149.967 95.5723C149.967 94.9863 149.785 94.5078 149.42 94.1367C149.062 93.7591 148.557 93.5638 147.906 93.5508H145.152ZM158.277 97.7207C158.922 97.7207 159.485 97.5254 159.967 97.1348C160.449 96.7441 160.715 96.2559 160.768 95.6699H162.477C162.444 96.2754 162.236 96.8516 161.852 97.3984C161.467 97.9453 160.953 98.3815 160.309 98.707C159.671 99.0326 158.993 99.1953 158.277 99.1953C156.839 99.1953 155.693 98.7168 154.84 97.7598C153.993 96.7962 153.57 95.4811 153.57 93.8145V93.5117C153.57 92.4831 153.759 91.5684 154.137 90.7676C154.514 89.9668 155.055 89.3451 155.758 88.9023C156.467 88.4596 157.304 88.2383 158.268 88.2383C159.452 88.2383 160.436 88.5931 161.217 89.3027C162.005 90.0124 162.424 90.9336 162.477 92.0664H160.768C160.715 91.3828 160.455 90.8229 159.986 90.3867C159.524 89.944 158.951 89.7227 158.268 89.7227C157.35 89.7227 156.637 90.0547 156.129 90.7188C155.628 91.3763 155.377 92.3301 155.377 93.5801V93.9219C155.377 95.1393 155.628 96.0768 156.129 96.7344C156.63 97.3919 157.346 97.7207 158.277 97.7207ZM172.359 89.8984H168.814V99H167.008V89.8984H163.531V88.4336H172.359V89.8984ZM174.283 99V88.4336H178.404C179.811 88.4336 180.888 88.681 181.637 89.1758C182.392 89.6641 182.77 90.3835 182.77 91.334C182.77 91.8223 182.623 92.265 182.33 92.6621C182.037 93.0527 181.604 93.3522 181.031 93.5605C181.669 93.7103 182.18 94.0033 182.564 94.4395C182.955 94.8757 183.15 95.3965 183.15 96.002C183.15 96.972 182.792 97.7142 182.076 98.2285C181.367 98.7428 180.361 99 179.059 99H174.283ZM176.09 94.3613V97.5449H179.078C179.833 97.5449 180.396 97.4049 180.768 97.125C181.145 96.8451 181.334 96.4512 181.334 95.9434C181.334 94.8887 180.559 94.3613 179.01 94.3613H176.09ZM176.09 92.916H178.424C180.117 92.916 180.963 92.4212 180.963 91.4316C180.963 90.4421 180.162 89.931 178.561 89.8984H176.09V92.916ZM185.064 93.6191C185.064 92.584 185.266 91.653 185.67 90.8262C186.08 89.9993 186.646 89.3613 187.369 88.9121C188.098 88.4629 188.928 88.2383 189.859 88.2383C191.298 88.2383 192.46 88.7363 193.346 89.7324C194.238 90.7285 194.684 92.0534 194.684 93.707V93.834C194.684 94.8626 194.485 95.7871 194.088 96.6074C193.697 97.4212 193.134 98.056 192.398 98.5117C191.669 98.9674 190.829 99.1953 189.879 99.1953C188.447 99.1953 187.285 98.6973 186.393 97.7012C185.507 96.7051 185.064 95.3867 185.064 93.7461V93.6191ZM186.881 93.834C186.881 95.0059 187.151 95.9466 187.691 96.6562C188.238 97.3659 188.967 97.7207 189.879 97.7207C190.797 97.7207 191.526 97.3626 192.066 96.6465C192.607 95.9238 192.877 94.9147 192.877 93.6191C192.877 92.4603 192.6 91.5228 192.047 90.8066C191.5 90.084 190.771 89.7227 189.859 89.7227C188.967 89.7227 188.248 90.0775 187.701 90.7871C187.154 91.4967 186.881 92.5124 186.881 93.834Z" fill="#252835"></path> <path d="M101.7 37.7C84.5997 48.7 74.7997 64 70.6997 57.6C66.5997 51.2 77.1997 37.1 94.2997 26.1C111.4 15.1 128.7 11.4 132.8 17.8C136.9 24.2 118.9 26.7 101.7 37.7Z" fill="#91BEC7"></path> </svg> 