<?xml version="1.0" encoding="UTF-8"?> <svg xmlns="http://www.w3.org/2000/svg" width="24" height="24" viewBox="0 0 24 24" fill="none"> <path d="M16.5 21C17.3284 21 18 20.3284 18 19.5C18 18.6716 17.3284 18 16.5 18C15.6716 18 15 18.6716 15 19.5C15 20.3284 15.6716 21 16.5 21Z" fill="white"></path> <path d="M17.23 17.22C16.5417 17.0919 15.8306 17.2362 15.2466 17.6224C14.6627 18.0086 14.2515 18.6065 14.1 19.29C13.39 21.72 16.41 24.02 17.42 21.22C17.4538 21.1284 17.4554 21.0279 17.4245 20.9352C17.3936 20.8425 17.3321 20.7631 17.25 20.71L18 20.54C17.93 21.06 19.08 20.54 19.07 20.2C19 18.86 18.75 17.62 17.23 17.22Z" fill="#111320"></path> <path d="M10.5 21C11.3284 21 12 20.3284 12 19.5C12 18.6716 11.3284 18 10.5 18C9.67157 18 9 18.6716 9 19.5C9 20.3284 9.67157 21 10.5 21Z" fill="white"></path> <path d="M11.23 17.22C10.5417 17.0919 9.83058 17.2362 9.24662 17.6224C8.66266 18.0086 8.25155 18.6065 8.10001 19.29C7.39001 21.72 10.41 24.02 11.42 21.22C11.4538 21.1284 11.4554 21.0279 11.4245 20.9352C11.3936 20.8425 11.3321 20.7631 11.25 20.71L12 20.54C11.93 21.06 13.08 20.54 13.07 20.2C13 18.86 12.75 17.62 11.23 17.22Z" fill="#111320"></path> <path d="M14.5 1.27002H12.85C11.7454 1.27002 10.85 2.16545 10.85 3.27002V5.50002C10.85 6.60459 11.7454 7.50002 12.85 7.50002H14.5C15.6046 7.50002 16.5 6.60459 16.5 5.50002V3.27002C16.5 2.16545 15.6046 1.27002 14.5 1.27002Z" fill="white"></path> <path d="M18 4.16001L17.62 2.27002C17.54 1.88002 15.95 1.18002 15.51 1.13002C14.45 0.510015 14.72 0.490015 13.45 0.750015C12.682 1.09201 12.0812 1.7251 11.78 2.51002C11.6634 3.0289 11.5997 3.55828 11.59 4.09002C11.3561 4.50468 11.2694 4.98623 11.3438 5.45644C11.4182 5.92664 11.6495 6.35786 12 6.68002C12.8 7.44001 14 7.30001 15 7.37002C15.74 7.37002 15 6.37002 14.67 6.37002C14.11 6.40674 13.5476 6.36296 13 6.24002C11.46 5.66002 12.22 3.70002 12.75 2.36001C13.4251 2.04071 14.1632 1.87669 14.91 1.88002L16.44 2.30001L16.53 2.35001L16.74 2.59001C17.28 4.22002 17.22 7.14002 14.96 7.59002C14.75 7.59002 13.96 8.28001 14.55 8.28001C15.0808 8.34523 15.6192 8.25977 16.1038 8.03342C16.5883 7.80707 16.9994 7.44896 17.29 7.00002C17.5027 6.6704 17.6461 6.30093 17.7115 5.91411C17.7768 5.52728 17.7627 5.13121 17.67 4.75002L17.9 4.47001C17.9495 4.43746 17.9864 4.38899 18.0046 4.33262C18.0227 4.27624 18.0211 4.21535 18 4.16001ZM15.1 1.87002C15.4023 1.89563 15.7028 1.93904 16 2.00002L15.1 1.87002Z" fill="#111320"></path> <path d="M16.5 4.5H8.5C7.39543 4.5 6.5 5.39543 6.5 6.5V18.5C6.5 19.6046 7.39543 20.5 8.5 20.5H16.5C17.6046 20.5 18.5 19.6046 18.5 18.5V6.5C18.5 5.39543 17.6046 4.5 16.5 4.5Z" fill="#34CC32"></path> <path d="M17.52 4.00002C15.7648 3.90478 14.0052 4.07332 12.3 4.50002C11.57 4.02002 11.3 3.57002 10.03 3.68002C8.90445 4.0677 7.95414 4.84425 7.35 5.87001C6.67 7.54001 7.21 9.81001 7.28 11.57C7.51513 13.3753 7.47805 15.2057 7.17 17C7.01872 17.3117 6.94012 17.6536 6.94012 18C6.94012 18.3464 7.01872 18.6884 7.17 19C7.37346 19.4027 7.68761 19.7389 8.07555 19.9692C8.46348 20.1995 8.90909 20.3142 9.36 20.3C11.9 20.46 14.47 20.37 17.01 20.4C17.92 20.4 17.07 19.15 16.6 19.14L11.91 19C11.06 19 8.58 19.45 8.09 18.4C7.91 18.02 8.19 17.03 8.23 16.64C8.36 15.43 8.54 14.22 8.68 13.01C8.96 10.59 8.86 8.01002 9.35 5.52002C11.3217 5.42374 13.2979 5.48393 15.26 5.70001C16.4686 5.74577 17.672 5.88283 18.86 6.11002L19.05 6.49001C18.97 9.49002 18.93 12.49 18.7 15.54C18.7041 17.0888 18.5466 18.6339 18.23 20.15L16.87 20.52C16.6 20.52 15.58 21.28 16.34 21.37C16.9486 21.5005 17.5833 21.4237 18.1432 21.1519C18.7031 20.8801 19.1561 20.4289 19.43 19.87C19.94 18.87 19.77 17.45 19.83 16.38C19.9857 14.8754 20.0425 13.3621 20 11.85C19.8742 10.0325 20.0157 8.20643 20.42 6.43001C20.54 5.67001 18.12 4.00002 17.52 4.00002Z" fill="#111320"></path> <path d="M14.63 17.51C14.8 17.51 14.63 17.12 14.34 16.86C14.76 16.86 14.25 16.2 13.98 16.19C11.84 16.19 9.71001 16.1 7.57001 16.08C7.47001 16.08 7.43001 16.08 7.44001 16.14H7.30001C6.98001 16.14 7.30001 16.33 7.58001 16.49H7.08001C6.80001 16.49 6.93001 16.61 7.18001 16.74C7.27913 16.8405 7.39841 16.9189 7.53001 16.97C7.53001 17.13 8.53001 17.53 8.66001 17.55C10.7031 17.8288 12.7591 18.0023 14.82 18.07C15 18.07 14.84 17.79 14.63 17.51Z" fill="#111320"></path> </svg> 