<?xml version="1.0" encoding="UTF-8"?> <svg xmlns="http://www.w3.org/2000/svg" width="24" height="24" viewBox="0 0 24 24" fill="none"> <path d="M2.84 22V14.69C2.84 12.41 6.09 10.57 10.1 10.56H13.2C16.76 10.56 19.65 12.19 19.65 14.21L21.08 21.94" fill="#FFC300"></path> <path d="M21.25 16.23L21.36 15.89C21.4208 15.852 21.4681 15.7958 21.495 15.7293C21.522 15.6629 21.5272 15.5896 21.51 15.52C21.11 13.85 21.16 13.52 20.12 12.35C19.3789 11.5145 18.425 10.8959 17.36 10.56C15.6348 9.97367 13.7841 9.85972 12 10.23C11.1102 10.423 10.2001 10.5069 9.29 10.48C8.7229 10.6178 8.16512 10.7915 7.62 11C6.51892 11.2743 5.52619 11.8744 4.77154 12.7218C4.01689 13.5692 3.5354 14.6246 3.39 15.75C3.17528 18.0767 3.11181 20.415 3.2 22.75C3.2 23.38 4.11 22.52 4.2 22.48C4.6 22.14 5.87 21.19 5.87 20.58C5.87 18.03 5.48 15.16 6.11 12.65L6.67 12.28L7.79 11.79L9.37 11.42L11.43 11.25C14.1 11.59 17.78 12.14 20 13.4C20.4568 15.3519 20.7478 17.339 20.87 19.34C21.1132 20.6609 21.2603 21.9978 21.31 23.34C21.31 24.21 22.43 22.76 22.4 22.27C22.164 20.2314 21.7797 18.2127 21.25 16.23Z" fill="#111320"></path> <path d="M12.16 14.72C15.6725 14.72 18.52 11.8725 18.52 8.36C18.52 4.84747 15.6725 2 12.16 2C8.64746 2 5.79999 4.84747 5.79999 8.36C5.79999 11.8725 8.64746 14.72 12.16 14.72Z" fill="white"></path> <path d="M16.37 2.20999C13.16 0.209994 8.22 1.12999 6.24 4.50999C5.23526 6.12949 4.8829 8.07006 5.25417 9.9394C5.62544 11.8087 6.69263 13.4674 8.24 14.58C9.21794 15.2284 10.3549 15.5964 11.5273 15.644C12.6997 15.6916 13.8627 15.417 14.89 14.85C15.636 14.3755 16.2736 13.7492 16.7613 13.0117C17.2489 12.2742 17.5756 11.4422 17.72 10.57C17.88 9.92999 16.72 9.34999 16.52 10.16C16.24 13.08 14.12 14.42 10.18 14.16C9.19853 13.8496 8.32942 13.2587 7.68 12.46C7.04305 11.6642 6.61354 10.7227 6.43 9.71999C11.99 -0.093339 15.9533 0.103328 18.32 10.31C18.2 11.08 19.47 10.97 19.55 10.42C20 7.20999 19.34 4.05999 16.37 2.20999Z" fill="#111320"></path> <path d="M9.66 7.49999C10.2841 7.49999 10.79 6.99407 10.79 6.36999C10.79 5.74591 10.2841 5.23999 9.66 5.23999C9.03592 5.23999 8.53 5.74591 8.53 6.36999C8.53 6.99407 9.03592 7.49999 9.66 7.49999Z" fill="white"></path> <path d="M8.86999 6.58997C8.78999 8.47997 10.78 8.67997 11.41 7.08997C11.48 7.08997 11.55 7.08997 11.57 6.94997C11.6281 6.75853 11.6438 6.55676 11.6161 6.35864C11.5885 6.16051 11.5181 5.97077 11.4098 5.80256C11.3015 5.63434 11.158 5.49167 10.9891 5.38444C10.8202 5.27721 10.6301 5.20798 10.4318 5.18154C10.2335 5.1551 10.0318 5.17209 9.84075 5.23133C9.64967 5.29056 9.47376 5.39064 9.3252 5.52461C9.17664 5.65858 9.05899 5.82325 8.98038 6.00721C8.90178 6.19116 8.86411 6.39001 8.86999 6.58997ZM10.52 7.27997C9.36999 6.72997 9.19999 6.33997 9.99999 6.11997C10.38 5.75997 10.65 5.85997 10.8 6.42997C10.8259 6.58722 10.9033 6.73142 11.02 6.83997C10.8 6.99997 10.56 7.12997 10.52 7.27997Z" fill="#111320"></path> <path d="M13.66 7.49999C14.2841 7.49999 14.79 6.99407 14.79 6.36999C14.79 5.74591 14.2841 5.23999 13.66 5.23999C13.0359 5.23999 12.53 5.74591 12.53 6.36999C12.53 6.99407 13.0359 7.49999 13.66 7.49999Z" fill="white"></path> <path d="M12.87 6.58997C12.79 8.47997 14.78 8.67997 15.41 7.08997C15.48 7.08997 15.55 7.08997 15.57 6.94997C15.6281 6.75853 15.6438 6.55676 15.6161 6.35864C15.5885 6.16051 15.5181 5.97077 15.4098 5.80256C15.3015 5.63434 15.158 5.49167 14.9891 5.38444C14.8202 5.27721 14.6301 5.20798 14.4318 5.18154C14.2335 5.1551 14.0318 5.17209 13.8407 5.23133C13.6497 5.29056 13.4738 5.39064 13.3252 5.52461C13.1766 5.65858 13.059 5.82325 12.9804 6.00721C12.9018 6.19116 12.8641 6.39001 12.87 6.58997ZM14.52 7.27997C13.37 6.72997 13.2 6.33997 14 6.11997C14.38 5.75997 14.65 5.85997 14.8 6.42997C14.8259 6.58722 14.9033 6.73142 15.02 6.83997C14.8 6.99997 14.56 7.12997 14.52 7.27997Z" fill="#111320"></path> <path d="M13.55 10.74C13.68 10.64 13.55 10.42 13.44 10.52H13.39C13.39 10.52 13.39 10.46 13.28 10.52L13.13 10.65C13.1121 10.6384 13.0913 10.6322 13.07 10.6322C13.0487 10.6322 13.0278 10.6384 13.01 10.65H12.95C11.45 11.71 10.61 11.4 9.07998 10.49C9.01998 10.49 9.00998 10.54 9.01998 10.66C8.96998 10.66 8.93998 10.66 8.92998 10.72C8.75998 10.72 8.80998 11.08 8.92998 11.16L9.02998 11.22L9.23998 11.36C9.25886 11.3989 9.2862 11.433 9.31998 11.46C9.96571 11.9845 10.7384 12.3294 11.56 12.46C12.25 12.4 13.12 11.54 13.56 11.09C13.56 11.09 13.56 11 13.56 10.94C13.68 10.92 13.64 10.82 13.55 10.74Z" fill="#111320"></path> <path d="M8.36 15.78C8.36 15.69 8.36 15.65 8.3 15.63C8.24 15.61 8.22 15.63 8.16 15.63C8.1 15.63 8 15.41 8 15.48C7.97608 15.4668 7.94959 15.4589 7.92234 15.4568C7.89508 15.4548 7.8677 15.4586 7.84207 15.4681C7.81644 15.4776 7.79316 15.4925 7.77382 15.5118C7.75448 15.5312 7.73953 15.5544 7.73 15.58V15.67C7.63 15.74 7.54 15.82 7.53 15.88C7.19 17.54 6.87 19.21 6.53 20.88C6.53 20.98 6.6 20.98 6.72 20.94V21C6.72 21.12 6.85 21.09 7.02 21H7V21.14C7 21.38 7.69 20.98 7.73 20.79C8.06 19.13 8.39 17.47 8.73 15.79C8.67 15.67 8.53 15.7 8.36 15.78Z" fill="#111320"></path> <path d="M17.89 15.68C17.89 15.59 17.77 15.68 17.65 15.74C17.65 15.67 17.65 15.66 17.55 15.68C17.55 15.61 17.48 15.61 17.42 15.68C17.3813 15.6654 17.3387 15.6654 17.3 15.68C17.3 15.68 17.25 15.68 17.2 15.68C17.1606 15.6769 17.1215 15.6884 17.0901 15.7124C17.0587 15.7364 17.0373 15.7712 17.03 15.81C16.9199 15.8974 16.8453 16.0217 16.82 16.16C17.03 17.84 17.23 19.53 17.44 21.22C17.44 21.3 17.51 21.29 17.59 21.22V21.31C17.59 21.41 17.7 21.36 17.81 21.31V21.49C17.81 21.73 18.48 21.05 18.46 20.84C18.29 19.05 18.09 17.37 17.89 15.68Z" fill="#111320"></path> </svg> 