<?xml version="1.0" encoding="UTF-8"?> <svg xmlns="http://www.w3.org/2000/svg" width="24" height="24" viewBox="0 0 24 24" fill="none"> <path d="M9.45144 3.19689L6.06852 18.8966C5.83586 19.9763 6.52258 21.0403 7.60237 21.273L12.8226 22.3978C13.9023 22.6305 14.9663 21.9437 15.199 20.864L18.5819 5.16429C18.8146 4.0845 18.1278 3.02055 17.048 2.78788L11.8279 1.66305C10.7481 1.43038 9.68411 2.1171 9.45144 3.19689Z" fill="#FF3B30"></path> <path d="M19.12 5.28998C19.1871 4.88821 19.112 4.47562 18.9075 4.12332C18.7031 3.77101 18.3821 3.50105 18 3.35998C17.46 3.07998 16.85 2.90998 16.29 2.67998C15.23 2.24998 14.29 1.52998 13.29 1.09998C13.119 1.02189 12.9417 0.95833 12.76 0.909981L12.56 0.849981H12.44C12.1083 0.801325 11.7696 0.847863 11.4634 0.984178C11.1571 1.12049 10.8958 1.34098 10.71 1.61998C10.3205 2.03341 10.0509 2.54501 9.93 3.09998C9.29 5.13998 8.86 7.25998 8.34 9.34998C7.7 11.9 7.17 15 5.77 17.22C5.59634 17.4221 5.46814 17.6591 5.39407 17.9151C5.32 18.171 5.30178 18.4399 5.34066 18.7035C5.37954 18.9671 5.4746 19.2193 5.61941 19.443C5.76422 19.6667 5.95539 19.8566 6.18 20C6.2851 20.0896 6.39528 20.1731 6.51 20.25H6.58L6.72 20.39C7.24406 20.7493 7.83087 21.0071 8.45 21.15L11.23 22.02C11 22.18 10.85 22.35 11.02 22.41L11.19 22.46C11.1853 22.4711 11.1832 22.4831 11.1838 22.4951C11.1844 22.5071 11.1877 22.5189 11.1934 22.5295C11.1992 22.54 11.2073 22.5492 11.2171 22.5562C11.2269 22.5632 11.2381 22.5679 11.25 22.57C11.3504 22.6092 11.4542 22.6393 11.56 22.66C11.56 22.72 11.56 22.77 11.56 22.8C11.827 22.9508 12.125 23.0383 12.4312 23.0555C12.7373 23.0728 13.0433 23.0194 13.3256 22.8996C13.6078 22.7797 13.8587 22.5966 14.0589 22.3643C14.2591 22.132 14.4031 21.8568 14.48 21.56C16.23 17.76 16.35 13.3 17.57 9.32998C17.8738 8.45579 18.2659 7.61479 18.74 6.81998C18.9199 6.56902 19.0615 6.29265 19.16 5.99998C19.1922 5.76293 19.1786 5.52191 19.12 5.28998ZM12.12 20.5C10.93 20.23 9.75 19.93 8.57 19.65C7.39 19.37 7.39 19.65 7.08 18.4C7.16 18.13 7.25 17.85 7.32 17.57C7.81 15.71 8.32 13.85 8.73 11.99C9.07 10.64 9.35 9.21998 9.66 7.78998L10 6.17998C10.1 5.76998 10.21 5.35998 10.31 4.95998C10.41 4.55998 10.61 3.95998 10.78 3.49998C10.9008 3.28722 11.0414 3.08633 11.2 2.89998C12.48 2.74998 14.88 3.43998 16.59 4.00998C16.9112 4.18314 17.1761 4.44469 17.3533 4.76368C17.5306 5.08268 17.6127 5.44577 17.59 5.80998C17.4411 6.44728 17.2541 7.07508 17.03 7.68998C16.3 9.99998 15.63 12.32 15.03 14.69C15.03 14.82 14.95 15.06 14.9 15.37C14.85 15.68 14.71 16.17 14.62 16.57C14.37 17.67 14.09 18.76 13.8 19.85C13.6107 20.5852 13.1497 21.2212 12.51 21.63C12.4717 21.5231 12.4249 21.4194 12.37 21.32C12.68 21.32 12.34 20.56 12.1 20.5H12.12Z" fill="#111320"></path> <path d="M11.75 19.5C15.7541 19.5 19 16.2541 19 12.25C19 8.24594 15.7541 5 11.75 5C7.74594 5 4.5 8.24594 4.5 12.25C4.5 16.2541 7.74594 19.5 11.75 19.5Z" fill="white"></path> <path d="M19.11 7.99998C17.43 5.48998 15.18 4.55998 12.24 4.16998C11.8 4.16998 12.04 4.53998 12.24 4.86998C10.7921 4.93643 9.398 5.43831 8.24 6.30998C7.62231 6.79016 7.07968 7.35975 6.63 7.99998C5.87773 9.09776 5.42608 10.3734 5.32 11.7C5.15281 13.6944 5.7498 15.6778 6.99007 17.2486C8.23034 18.8193 10.0212 19.86 12 20.16C16 20.66 20.75 17.46 20.61 13.16C20.6408 11.3282 20.118 9.52978 19.11 7.99998ZM6.42 10.57L11.42 5.92998L12.95 5.62998C13.44 6.20998 14.12 6.97998 14.71 7.06998L19.71 11.49C19.71 11.68 19.71 11.86 19.79 12.05C11.5433 21.35 7.08666 20.8566 6.42 10.57Z" fill="#111320"></path> <path d="M21.76 11.47V11.31C21.76 11.22 21.59 11.31 21.36 11.43C21.36 11.43 21.36 11.35 21.36 11.31C21.36 11.09 20.61 11.54 20.36 11.92C20.23 11.92 20.1 11.92 20.12 12.1C20.2169 12.7888 20.2537 13.4848 20.23 14.18C20.23 14.18 20.23 14.43 20.23 14.56C20.23 14.69 20.34 14.74 20.48 14.56C20.4752 14.6166 20.4752 14.6734 20.48 14.73C20.48 15.01 20.59 14.93 20.74 14.73C20.74 14.79 20.74 14.81 20.82 14.79V15C20.82 15.78 21.62 13.9 21.67 13.68C21.86 12.91 22.05 12.14 22.25 11.38C22.38 11 21.69 11.51 21.76 11.47Z" fill="#111320"></path> <path d="M11.93 8.34C11.93 8.23 11.86 8.19 11.79 8.19C11.7742 8.17783 11.7549 8.17123 11.735 8.17123C11.7151 8.17123 11.6958 8.17783 11.68 8.19C11.62 8.11 11.51 8.05 11.45 8.1C11.421 8.07815 11.3865 8.06463 11.3504 8.06088C11.3142 8.05713 11.2778 8.0633 11.2449 8.07872C11.212 8.09414 11.1839 8.11824 11.1637 8.14841C11.1434 8.17859 11.1318 8.21371 11.13 8.25C10.98 8.37 10.85 8.53 10.85 8.63C10.85 10.42 10.85 12.22 10.85 14.01C10.85 14.12 10.94 14.12 11.05 14.06V14.15C11.05 14.29 11.2 14.24 11.37 14.15V14.36C11.37 14.67 12.22 13.96 12.22 13.71V8.32C12.22 8.2 12.09 8.23 11.93 8.34Z" fill="#111320"></path> <path d="M15.93 15.11C15.966 15.093 15.9965 15.0661 16.0179 15.0325C16.0392 14.9989 16.0506 14.9598 16.0506 14.92C16.0506 14.8801 16.0392 14.8411 16.0179 14.8075C15.9965 14.7738 15.966 14.747 15.93 14.73L15.69 14.67C15.6935 14.6535 15.6935 14.6365 15.69 14.62H15.74C15.94 14.67 16.07 14.33 15.84 14.27L10.78 12.91C10.7587 12.8977 10.7346 12.8912 10.71 12.8912C10.6854 12.8912 10.6613 12.8977 10.64 12.91H10.52C10.32 12.86 10.26 13.1 10.35 13.23C10.01 13.14 10.13 13.68 10.35 13.73C10.35 13.81 10.43 13.89 10.51 13.91H10.66C10.66 14.01 10.73 14.11 10.82 14.13L15.88 15.5C16.18 15.64 16.15 15.17 15.93 15.11Z" fill="#111320"></path> </svg> 